<svg xmlns="http://www.w3.org/2000/svg" viewBox="0 0 864 864"><path fill="#D42027" d="M296.88 360.014s-41.958-32.39-27.726-115.322C283.012 163.936 373.182 88.688 484.09 98.457c94.71 8.342 145.666 63.398 175.68 101.09 31.65 39.748 60.85 86.365 60.85 86.365l-15.705 9.816s-32.387-63.795-72.625-62.814c-40.24.982-6.38 54.227-26.254 100.6-16.094 37.553-57.17 40.73-57.17 40.73s-21.592-106.978-97.164-107.958c-75.57-.983-150.897 46.618-154.823 93.728z"/><path fill="#FFF" d="M700.01 463.555s29.443-25.516 13.738-80.48c-13.985-48.948-76.237-62.087-121.58-46.35 2.203-5.04 3.994-10.754 5.033-17.198 6.8-42.113-3.23-76.27-56.67-116.3-63.04-47.22-148.69-28.708-192.85-6.626-44.16 22.09-74.86 64.22-66.98 108.95 6.82 38.69 18.9 41.71 18.9 41.71s-58.88-48.58-121.7 8.35-3.92 111.89-3.92 111.89-72.62 21.59-49.07 88.33c23.56 66.74 62.81 47.11 62.81 47.11s-39.25 80.48 39.26 123.66c78.52 43.18 129.55-11.78 129.55-11.78s13.74 49.07 78.52 51.04c64.78 1.96 80.48-49.07 80.48-49.07s61.83 58.4 135.44 7.85c69.66-47.83 35.33-121.69 35.33-121.69s64.78-3.922 66.74-64.77c1.96-60.853-53-74.593-53-74.593z"/><circle fill="#F8F9F7" cx="714.239" cy="290.82" r="48.581"/><path fill="#EFC7B0" d="M570.838 363.158c-.81-17.053-14.92-23.19-17.828-24.372-.25-.23-.504-.455-.758-.678 2.81-4.49 31.25-52.432-14.518-85.38-70.62-50.845-88.518-40.722-138.205-34.86 0 0-37.87 15.406-62.07 36.954-32.81 29.223-25.46 75.685-25.46 75.685s-2.79 2.016-6.46 5.485c-5.57 5.028-12.89 12.98-16.12 23.958-4.91 16.684 6.87 38.277 6.87 38.277l.06.016c43.38 45.14 112.01 11.882 142.25 11.882 26.8 0 69.81 33.533 116.78-11.897 7.66-7.41 16.42-14.46 15.43-35.07zm-191.324-64.14c5.504-5.85 10.406-9.058 17.182-12.04 6.773-2.98 14.756-3.9 21.56-.98 1.15.49 2.294 1.12 3.054 2.117 1.375 1.803 1.533 4.164 1.26 6.414-.193 1.6-.758 3.38-1.473 4.82-1.383 2.79-4.73 4.45-7.787 3.87-3.06-.58-5.56-3.36-5.82-6.46-.148 3.6-2.492 7.15-5.926 8.25-3.436 1.1-7.684-.73-8.848-4.14-.24 3.14-.516 6.4-2.107 9.12-1.6 2.72-4.92 4.69-7.91 3.7-1.26-.42-2.61-1.18-3.51-2.15-1.51-1.62-2.68-3.86-2.81-6.47-.1-2.04 1.73-4.59 3.13-6.07zm61.802-4.898c-.232-2.254-.033-4.613 1.373-6.39.77-.986 1.93-1.59 3.09-2.064 6.85-2.797 14.82-1.738 21.54 1.364 6.72 3.1 11.56 6.396 16.96 12.344 1.37 1.508 3.16 4.092 3.02 6.123-.17 2.607-1.39 4.83-2.92 6.422-.92.94-2.29 1.68-3.55 2.08-3.01.94-6.3-1.1-7.84-3.85-1.55-2.75-1.77-6.01-1.95-9.16-1.23 3.39-5.51 5.13-8.92 3.97-3.42-1.16-5.7-4.75-5.78-8.36-.32 3.09-2.87 5.82-5.94 6.35-3.07.52-6.38-1.2-7.72-4.01-.69-1.46-1.23-3.25-1.39-4.85z"/><path fill="#ED1C24" d="M433.264 357.23c21.663 0 44.872-2.643 59.96 12.84 16.804 17.246 14.31 61.93-57.64 61.93s-80.15-29.144-69.63-52.49c12.766-28.32 48.532-22.28 67.31-22.28z"/><g fill="#B2D6F1"><path d="M700.01 463.555s29.443-25.516 13.738-80.48c-13.7-47.942-73.69-61.522-118.76-47.274 38.768-6.28 83.18 7.97 94.312 46.93 14.43 50.51-12.625 73.95-12.625 73.95s50.5 12.63 48.697 68.54-61.322 59.52-61.322 59.52 31.537 67.88-32.465 111.83c-67.637 46.45-124.45-7.21-124.45-7.21s-14.433 46.9-73.952 45.09c-59.52-1.8-72.145-46.89-72.145-46.89s-46.895 50.5-119.04 10.82c-72.146-39.68-36.073-113.62-36.073-113.62s-36.072 18.04-57.717-43.28C126.565 480.14 193.3 460.3 193.3 460.3s-54.107-50.503 3.607-102.808c24.596-22.29 50.156-24.573 71.412-19.884-25.17-8.93-58.56-10.892-90.45 18-62.81 56.925-3.93 111.888-3.93 111.888s-72.63 21.59-49.07 88.33c23.55 66.736 62.81 47.11 62.81 47.11s-39.26 80.476 39.26 123.66c78.51 43.183 129.55-11.776 129.55-11.776s13.74 49.07 78.51 51.03c64.77 1.96 80.48-49.074 80.48-49.074s61.83 58.397 135.44 7.85c69.65-47.83 35.33-121.697 35.33-121.697s64.77-3.93 66.74-64.78c1.96-60.86-53-74.6-53-74.6z"/><path d="M556.717 241.748c-50.053-64.775-141.33-64.775-209.05-23.555-35.1 24.3-50.37 68.406-36.77 107.348l2.42-2.33s-14.23-54.22 51.282-96.92c65.51-42.69 153.1-6.62 174.45 19.14 21.35 25.77 22.64 47.57 19.87 63.67-2.03 11.78-8.28 19.51-8.28 19.51s1.11.99 2.7 2.55c20.48-23.55 24.69-58.39 3.36-89.4zm158.993 80.725c-25.347 0-46.136-19.422-48.358-44.193-1.07 4.008-1.693 8.197-1.693 12.54 0 26.83 21.75 48.583 48.58 48.583s48.58-21.752 48.58-48.582c0-1.48-.09-2.94-.22-4.39-5.54 20.75-24.4 36.05-46.89 36.05zm-94.954 50.054c-.72.197-1.434.44-2.15.697.857 9.582-3.314 24.627-11.414 33.152-13.22 13.914-37.566 6.957-37.566 6.957s16 22.264-4.87 45.916c-20.87 23.65-55.886 4.4-55.886 4.4s-3.465 27.74-32.463 34.55c-30.61 7.19-46.61-27.83-46.61-27.83s-21.105 35.94-57.74 21.56c-17.24-6.77-17.626-33.86-17.626-33.86s-32 16.23-51.94-2.32c-16.21-15.08-2.08-44.52-2.08-44.52s-9.74 2.08-24.35 0c-14.61-2.09-22.95-18.79-20.17-38.26.04-.24.08-.46.12-.69-5.66-1.38-9.4.36-10.64 9.05-2.94 20.61 5.89 38.28 21.35 40.48 15.46 2.21 25.77 0 25.77 0s-14.94 31.15 2.21 47.11c21.1 19.622 54.96 2.45 54.96 2.45s.41 28.67 18.65 35.822c38.77 15.21 61.1-22.82 61.1-22.82s16.93 37.05 49.32 29.446c30.685-7.207 34.35-36.56 34.35-36.56s37.05 20.364 59.136-4.66c22.08-25.03 5.15-48.583 5.15-48.583s25.76 7.364 39.75-7.36c13.985-14.72 16.93-47.84 3.68-44.16z"/></g><g fill="#221A15"><ellipse cx="408.371" cy="329.295" rx="7.361" ry="12.438"/><ellipse cx="458.059" cy="329.295" rx="7.361" ry="12.438"/></g><path fill="#FFF" d="M559.153 283.367c5.49-7.257-.656-21.268-13.73-31.293-5.33-4.085-10.978-6.853-16.18-8.237.405-.95.65-1.976.714-3.077.51-8.972-11.186-19.398-26.125-23.29-2.306-.6-4.554-1.008-6.71-1.24-4.292-12.702-23.573-22.06-44.444-21.195-11.8.49-21.683 4.148-27.823 9.552-6.694-1.923-15.5-1.824-24.104.738-10.2 3.04-17.45 8.75-19.58 14.604-4.25.43-8.72 1.48-13.08 3.21-6.85 2.7-12.17 6.56-15.34 10.67-7.02.54-15.37 3.82-22.6 9.44-11 8.54-15.63 19.5-11.43 25.88-3.94 4.09-7.45 9.55-9.84 15.74-5.55 14.4-5.71 44.11 3.15 45.62 8.86 1.52 32.71-20.05 38.26-34.46 2.77-7.19 2.39-12.56 1.32-17.78 3.88-1.6 7.01 2.81 10.63 0 4.35-3.38.25-20.87 2.458-24.57 6.333.64 20.48 9.59 27.71 6.73 8.85-3.51 28.41-5.64 23.36-18.2 4.086-.12-.18 1.15 4.086-.12 2.858-.85 5.044 6.454 7.39 5.24 7.98 8.52 23.49 13.07 36.235-3.007 4.606-5.806 3.747 8.09 9.19 5.636 4.74 4.29 21.784-2.01 29.354-.04 2.77.72-2.738 10.29-.19 10.48-1.377 7.67.78 16.77 11.63 25.084 3.522 2.707 12.2 3.76 15.79 5.3-1.46 4.21 4.8 3.18 4.8 8.64 0 14.6 11.5 39.32 19 39.32s13.17-10.18 8.15-39.323c-.98-5.7-.96-11.126-2.576-15.48.19-.21.396-.395.566-.62z"/></svg>