<?xml version="1.0" standalone="no"?>
<!DOCTYPE svg PUBLIC "-//W3C//DTD SVG 20010904//EN"
 "http://www.w3.org/TR/2001/REC-SVG-20010904/DTD/svg10.dtd">
<svg version="1.0" xmlns="http://www.w3.org/2000/svg"
 width="500.000000pt" height="500.000000pt" viewBox="0 0 500.000000 500.000000"
 preserveAspectRatio="xMidYMid meet">
<metadata>
Created by potrace 1.11, written by Peter Selinger 2001-2013
</metadata>
<g transform="translate(0.000000,500.000000) scale(0.100000,-0.100000)"
fill="#000000" stroke="none">
<path d="M2435 4986 c-343 -58 -634 -204 -865 -436 -271 -270 -394 -583 -377
-955 6 -124 29 -235 68 -324 19 -45 29 -55 81 -81 32 -16 61 -30 64 -30 3 0
-4 14 -16 30 -74 103 -112 362 -75 504 103 394 521 672 1095 726 258 24 533
-30 729 -145 201 -118 398 -316 476 -480 76 -159 85 -409 20 -568 -7 -17 -4
-18 31 -10 64 13 234 7 304 -11 99 -25 199 -77 262 -135 107 -98 166 -271 155
-451 -7 -108 -27 -173 -76 -246 l-39 -58 69 -34 c88 -42 186 -133 227 -210 75
-140 82 -319 17 -459 -52 -114 -198 -218 -343 -245 -34 -6 -62 -15 -62 -20 0
-4 10 -43 22 -85 33 -118 31 -290 -5 -398 -34 -102 -89 -185 -177 -268 -185
-175 -438 -252 -666 -202 -92 20 -239 86 -307 139 -27 21 -50 36 -51 34 -2 -2
-14 -25 -27 -53 -33 -69 -140 -175 -215 -213 -91 -46 -167 -62 -290 -62 -198
0 -323 47 -440 164 -40 40 -80 93 -94 121 -13 28 -24 52 -26 53 -1 2 -26 -15
-54 -37 -144 -114 -352 -169 -530 -142 -306 48 -560 246 -626 488 -30 111 -14
318 32 428 l13 32 -67 -5 c-55 -3 -77 0 -120 18 -95 41 -186 161 -243 320 -19
52 -23 86 -24 170 0 99 2 109 33 172 43 88 135 174 239 224 43 21 80 39 82 40
2 2 -12 22 -32 46 -91 113 -131 226 -125 356 5 108 30 173 99 265 124 164 311
265 499 268 118 2 19 21 -110 22 -89 0 -129 -5 -177 -20 -97 -32 -189 -89
-275 -171 -142 -136 -198 -251 -198 -406 0 -129 41 -239 133 -356 l43 -54 -88
-44 c-195 -97 -308 -256 -308 -432 0 -147 93 -365 200 -469 76 -73 193 -109
270 -82 26 9 31 8 27 -3 -21 -55 -47 -154 -57 -221 -38 -248 62 -486 263 -629
86 -61 210 -121 314 -152 114 -35 309 -39 413 -10 95 26 196 76 271 133 l66
50 25 -51 c106 -215 353 -340 638 -323 160 10 292 64 390 160 55 53 130 160
130 184 0 20 5 17 95 -42 151 -101 293 -145 468 -145 128 0 223 23 339 80 168
84 295 202 367 340 63 120 76 176 75 325 0 122 -13 204 -49 296 -5 12 9 19 72
32 146 32 276 114 343 218 52 80 74 163 74 279 -1 224 -108 398 -306 494 -84
41 -87 44 -69 60 27 25 76 121 97 191 23 75 23 231 1 332 -47 215 -195 363
-424 424 -84 23 -283 31 -356 16 -35 -8 -38 -7 -28 10 5 11 17 57 27 103 14
72 16 116 10 292 -7 193 -6 210 12 252 28 62 64 79 156 74 91 -4 176 -44 263
-123 l62 -56 46 35 c25 20 53 39 62 44 13 8 4 25 -53 105 -231 321 -461 570
-644 699 -194 137 -418 234 -654 284 -101 22 -154 26 -321 30 -137 2 -225 -1
-280 -10z"/>
<path d="M2345 4295 c-219 -35 -462 -133 -597 -240 -112 -90 -211 -256 -242
-407 -21 -103 -20 -125 4 -59 11 29 30 68 44 86 17 22 25 44 24 73 0 51 37
118 86 156 39 29 133 76 155 76 7 0 30 13 50 29 20 16 70 44 111 62 41 18 91
46 109 62 60 51 117 71 211 73 70 1 96 7 145 30 83 39 196 45 292 16 77 -24
146 -69 171 -112 11 -20 28 -31 51 -35 57 -11 123 -47 161 -87 19 -21 83 -88
142 -148 113 -117 147 -174 133 -227 -9 -37 -8 -49 8 -173 l14 -105 17 37 c27
63 39 137 34 227 -8 150 -63 262 -188 387 -152 153 -331 243 -555 279 -108 18
-270 18 -380 0z"/>
<path d="M2317 3896 c7 -33 -22 -59 -93 -86 -94 -35 -125 -36 -210 -5 -41 15
-77 25 -80 23 -3 -3 -6 -42 -7 -87 -2 -91 -11 -104 -62 -95 l-30 5 -1 -58 c0
-73 -24 -120 -101 -203 -64 -70 -125 -115 -171 -127 -48 -12 -140 -108 -175
-181 -27 -57 -29 -71 -25 -135 11 -147 67 -232 198 -301 100 -53 175 -69 335
-71 121 -3 149 -6 210 -28 97 -36 188 -48 345 -49 152 0 247 16 334 57 49 23
64 26 119 20 154 -16 311 44 445 170 102 96 125 145 120 255 -2 64 -8 83 -31
117 -15 22 -46 50 -70 63 -59 32 -86 58 -112 110 -27 54 -55 144 -55 179 0 45
-40 89 -93 102 -55 13 -96 44 -129 97 -18 30 -22 50 -22 114 l1 78 -114 -2
-115 -3 -24 30 -23 30 -33 -32 c-45 -44 -102 -66 -147 -58 -40 7 -109 48 -129
77 -7 10 -24 18 -36 18 -19 0 -22 -4 -19 -24z m21 -312 c29 -20 30 -76 2 -104
-24 -24 -47 -25 -72 -3 -18 16 -19 15 -34 -5 -16 -24 -62 -30 -81 -11 -8 8
-13 3 -18 -20 -7 -31 -38 -61 -62 -61 -22 0 -53 39 -53 67 0 34 60 92 132 127
63 30 150 35 186 10z m380 -14 c60 -31 132 -98 132 -124 0 -22 -40 -66 -61
-66 -28 0 -59 36 -59 67 0 21 -3 24 -12 15 -20 -20 -65 -14 -86 12 l-19 25
-21 -21 c-18 -19 -25 -20 -47 -10 -24 11 -45 47 -45 78 0 8 9 23 20 34 32 32
121 28 198 -10z"/>
<path d="M4185 3589 c-15 -114 46 -253 143 -324 228 -169 552 -25 578 256 l6
64 -30 -60 c-43 -88 -124 -159 -214 -186 -207 -63 -407 50 -463 260 l-12 46
-8 -56z"/>
<path d="M1061 2931 c-40 -40 -36 -172 8 -259 40 -78 93 -102 224 -102 l94 0
-19 -56 c-27 -81 -26 -180 2 -239 55 -114 216 -153 386 -95 32 11 58 20 59 20
1 0 6 -23 9 -52 16 -121 73 -195 173 -224 127 -37 252 2 360 113 l62 64 15
-29 c30 -58 110 -135 171 -163 163 -78 356 15 422 202 l16 45 66 -23 c191 -70
349 -16 428 146 34 68 38 161 10 229 -9 23 -17 44 -17 46 0 2 24 -1 53 -5 58
-10 140 2 186 25 39 21 79 70 110 136 32 71 37 203 8 225 -34 25 -54 8 -60
-50 -7 -65 -49 -164 -85 -198 -42 -41 -96 -58 -178 -58 -41 0 -79 3 -86 7 -8
5 -9 2 -3 -12 4 -10 15 -44 23 -75 13 -47 14 -65 3 -112 -16 -72 -73 -153
-135 -192 -42 -26 -61 -30 -131 -33 -67 -3 -94 1 -153 21 l-71 25 -16 -49
c-23 -69 -82 -139 -145 -173 -73 -40 -176 -48 -243 -18 -57 25 -130 92 -164
149 l-25 43 -32 -39 c-102 -128 -254 -176 -391 -125 -65 24 -120 102 -131 188
-9 66 -12 67 -79 44 -115 -39 -250 -22 -318 40 -58 52 -74 175 -38 280 l18 52
-91 0 c-111 0 -163 20 -200 77 -29 44 -48 121 -44 178 3 47 -19 58 -51 26z"/>
</g>
</svg>
